# xmcd
#
# Track frame offsets:
#	150
#	14580
#	29865
#	45640
#	59299
#	73211
#	87115
#	102671
#	117245
#	134151
#	148865
#	163898
#
# Disc length: 2393 seconds
# Revision: 2
# Processed by: cddbd v1.5.2PL0 Copyright (c) Steve Scherf et al.
# Submitted via: dBpowerAMP V12.0
#
DISCID=c009570c
DTITLE=Blues - the perfect blues collection 25 original albums (Sony 88697847832) - CD01 Bessie Smith 1951 The Bessie Smith Story Volume 1
DYEAR=2011
DGENRE=Blues
TTITLE0=The Saint Louis Blues
TTITLE1=I Ain't Goin' To Play No Second Fiddle
TTITLE2=You've Been A Good Ole Wagon
TTITLE3=Sobbin' Hearted Blues
TTITLE4=Reckless Blues
TTITLE5=J. C. Holmes Blues
TTITLE6=Careless Love Blues
TTITLE7=Cold In Hand Blues
TTITLE8=Nashville Woman's Blues
TTITLE9=Jail-House Blues
TTITLE10=Ticket Agent, Ease Your Window Down
TTITLE11=Down Hearted Blues
EXTD=
EXTT0=
EXTT1=
EXTT2=
EXTT3=
EXTT4=
EXTT5=
EXTT6=
EXTT7=
EXTT8=
EXTT9=
EXTT10=
EXTT11=
PLAYORDER=
